<?xml version="1.0" encoding="UTF-8"?>
<svg id="Livello_1" data-name="Livello 1" xmlns="http://www.w3.org/2000/svg" viewBox="0 0 1920 1080">
  <defs>
    <style>
      .cls-1 {
        fill: #fff;
      }
    </style>
  </defs>
  <rect width="1920" height="1080"/>
  <g>
    <polygon class="cls-1" points="1096.56 596.02 827 325.66 718.71 433.84 825.59 540.95 919.82 446.85 949.3 476.1 825.45 598.99 661.17 433.48 826.85 265.7 1096.55 537.29 1199.81 434.2 1091.24 325.75 1002.42 414.45 972.67 384.57 1091.74 266.17 1257.96 433.77 1096.56 596.02"/>
    <polygon class="cls-1" points="846.02 746.88 845.41 699.44 823.64 735.85 814.36 735.65 793.12 698.64 792.94 746.89 778.26 746.81 778.26 670 793.78 670.03 819.02 714.49 844.53 670.25 860.75 669.91 860.97 746.57 846.02 746.88"/>
    <polygon class="cls-1" points="1259.83 746.36 1242.36 746.61 1210.06 698.36 1209.73 746.66 1194.02 746.66 1194.01 670 1210.18 670.03 1244.8 719.2 1244.98 670.16 1259.72 669.81 1259.83 746.36"/>
    <path class="cls-1" d="M766.05,734.61c-.17,7.46-6.01,12.65-13.01,12.43l-42.62-.17c-5.02-1.83-8.48-4.9-9.32-8.79.79-5.32-2.71-12.95,3.01-13.11l9.56.06c2.76-.64,2.56,2.48,2.1,6.94l34.88.03-.07-17.09-34.35-.13c-5.1-.57-9.61-2.33-12.52-5.31-2.76-4.73-2.94-10.11-2.62-15.47.11-9.19-2.06-18.17,6.54-23.87l51.23-.12c7.39,4.09,8.64,15.44,5.65,21.44l-11.07-.32c-3.78,1.09-3.22-2.81-3.34-7.32h-34.08s-.02,17-.02,17l38.03.12c5.73-.08,10.7,3.46,11.91,9.07l.1,24.62Z"/>
    <path class="cls-1" d="M1166.34,746.86l-38.33.06c-9.28-.36-16.06-7.6-15.73-16.9l-.13-45.93c.69-6.94,4.94-12.89,11.86-14.3l45.86.13c6.49,1.96,10.56,7.42,11.15,14.15v47.94c-.26,8.22-6.11,14.1-14.66,14.85ZM1127.53,684.84v47.09h38.5v-47.09h-38.5Z"/>
    <path class="cls-1" d="M676.37,746.92l-39.36-.02c-8.18-.42-14.18-6.63-14.23-14.89l.1-49.01c.21-6.69,4.45-12.16,11.04-13.28l43.05.09c7.19.49,12.87,5.77,12.22,13.19l-.27,49.01c.58,7.67-4.78,13.3-12.56,14.91ZM637.94,684.68l-.04,47.19,36.31.03.04-47.19-36.31-.03Z"/>
    <path class="cls-1" d="M926.36,746.85l-35.39.04c-8.16.35-15.27-4.86-16.86-12.89l-.03-50.91c.8-6.64,5.27-12.06,11.9-13.17l43-.06c6.3,1.23,10.94,5.89,12.17,12.18l-.17,47.96c.67,8.88-5.42,15.87-14.61,16.85ZM926.07,684.73l-37.21.04.05,47.26,37.21-.04-.05-47.26Z"/>
    <path class="cls-1" d="M1007.62,718.92l-37.59.04-.07,27.86-15.62-.25.07-76.74,56.61.03c4.81,1.38,8.13,5.29,8.99,10.1v26.09c.17,6.89-4.97,12.86-12.39,12.85ZM1005,684.64l-35.01.03v19.41s35.03-.03,35.03-.03v-19.41Z"/>
    <polygon class="cls-1" points="1099.01 746.63 1083.78 746.89 1083.75 715.45 1047.21 715.41 1047.01 746.81 1032.38 746.62 1032.44 670.11 1047.07 669.86 1047.22 700.15 1083.74 700.1 1083.9 670.02 1098.76 669.82 1099.01 746.63"/>
    <path class="cls-1" d="M595.21,731.81l.17-10.26,15.24-.22c1.93,11.92.39,22-11.01,25.42l-39.65.21c-8.49-.23-14.59-6.52-14.92-15.01l.17-50.46c1.29-6,4.67-10.81,10.82-11.61h43.9c8.99,1.56,12.39,9.54,11,18.16l-.2,6.73-7.74.38-7.54-.68-.03-9.4-35.32-.07-.12,46.65,35.22.15Z"/>
    <polygon class="cls-1" points="1370.91 746.41 1353.06 746.76 1334.31 719.7 1315.99 746.87 1297.45 746.58 1325.33 707.7 1299.18 670.24 1316.86 669.84 1334.48 695.36 1351.93 669.78 1369.34 670.31 1343.26 708.05 1370.91 746.41"/>
    <rect class="cls-1" x="1272.13" y="669.85" width="15.26" height="77" transform="translate(-1.22 2.21) rotate(-.1)"/>
  </g>
</svg>